<svg width="90" height="92" viewBox="0 0 90 92" fill="none" xmlns="http://www.w3.org/2000/svg">
<path d="M45 91.067C69.8528 91.067 90 70.6809 90 45.5335C90 20.386 69.8528 0 45 0C20.1472 0 0 20.386 0 45.5335C0 70.6809 20.1472 91.067 45 91.067Z" fill="url(#paint0_linear_6_195)"/>
<path fill-rule="evenodd" clip-rule="evenodd" d="M44.7442 47.0788L44.6638 47.0567L44.6858 47.1158L44.6346 47.0714L44.62 47.1454L44.5981 47.0788L44.5542 47.1232L44.5689 47.0641L44.5031 47.0788L44.5542 47.0271L44.4958 47.0049L44.5542 46.9901L44.4958 46.931L44.5689 46.9605L44.5542 46.9014L44.5981 46.9384L44.62 46.8644L44.6346 46.9384L44.6858 46.9014L44.6638 46.9605L44.7442 46.931L44.6858 46.9901L44.7515 47.0049L44.6858 47.0271L44.7442 47.0788Z" fill="url(#paint1_linear_6_195)"/>
<path d="M63.476 64.2306C73.6811 53.9044 73.6811 37.1625 63.476 26.8364C53.2709 16.5103 36.7251 16.5103 26.52 26.8364C16.3149 37.1625 16.3149 53.9044 26.52 64.2306C36.7251 74.5567 53.2709 74.5567 63.476 64.2306Z" fill="url(#paint2_linear_6_195)"/>
<path style="mix-blend-mode:multiply" opacity="0.88" fill-rule="evenodd" clip-rule="evenodd" d="M45 12.9103C27.1915 12.9103 12.759 27.5138 12.759 45.5335C12.759 63.5532 27.1915 78.1567 45 78.1567C62.8085 78.1567 77.241 63.5532 77.241 45.5335C77.241 27.5138 62.8012 12.9103 45 12.9103ZM45 75.2064C28.8064 75.2064 15.6747 61.919 15.6747 45.5335C15.6747 29.1479 28.7991 15.8606 45 15.8606C61.2009 15.8606 74.3253 29.1479 74.3253 45.5335C74.3253 61.919 61.1936 75.2064 45 75.2064V75.2064Z" fill="url(#paint3_linear_6_195)"/>
<path style="mix-blend-mode:screen" opacity="0.5" fill-rule="evenodd" clip-rule="evenodd" d="M45 14.3226C27.1915 14.3226 12.759 27.5138 12.759 45.5335C12.759 63.5531 27.1915 78.1567 45 78.1567C62.8085 78.1567 77.241 63.5531 77.241 45.5335C77.241 27.5138 62.8012 14.3226 45 14.3226ZM44.7442 75.9828C28.5507 75.9828 15.6747 61.9264 15.6747 45.5335C15.6747 29.1405 28.7991 15.8605 45 15.8605C61.2009 15.8605 74.3253 29.1479 74.3253 45.5335C74.3253 61.919 60.9378 75.9828 44.7442 75.9828V75.9828Z" fill="url(#paint4_linear_6_195)"/>
<path style="mix-blend-mode:multiply" opacity="0.88" fill-rule="evenodd" clip-rule="evenodd" d="M15.6747 31.9725C15.6747 31.9725 24.7873 14.3152 45 14.3152C65.2127 14.3152 75.5237 34.9893 75.5237 34.9893C75.5237 34.9893 68.5377 12.9029 45 12.9029C21.4623 12.9029 15.6747 31.9725 15.6747 31.9725Z" fill="url(#paint5_linear_6_195)"/>
<path fill-rule="evenodd" clip-rule="evenodd" d="M44.6785 47.0271L44.7369 47.0788L44.6638 47.0567H44.6419L44.6273 47.0493H44.6054L44.5908 47.0567L44.5688 47.0641L44.5031 47.0788L44.5469 47.0271L44.4885 47.0049L44.5469 46.9901L44.4885 46.931L44.5688 46.9531L44.5469 46.9014L44.5981 46.9384L44.6127 46.8644L44.6346 46.9384L44.6785 46.9014L44.6638 46.9531L44.7369 46.931L44.6785 46.9901L44.7442 47.0049L44.6785 47.0271Z" fill="url(#paint6_linear_6_195)"/>
<path style="mix-blend-mode:multiply" opacity="0.88" fill-rule="evenodd" clip-rule="evenodd" d="M50.0276 0.850324V3.32738C50.0276 4.42172 49.1068 5.27206 48.0326 5.19072C47.0315 5.11678 46.0157 5.07981 44.9927 5.07981C43.5677 5.07981 42.1647 5.15375 40.7762 5.30163C39.8043 5.40515 38.9566 4.63615 38.9566 3.64533V0.968632C40.9297 0.70244 42.9466 0.561951 44.9927 0.561951C46.6953 0.561951 48.3761 0.658075 50.0276 0.850324Z" fill="url(#paint7_linear_6_195)"/>
<path style="mix-blend-mode:multiply" opacity="0.88" fill-rule="evenodd" clip-rule="evenodd" d="M50.0276 88.6269V91.3331C48.3761 91.5254 46.6953 91.6215 44.9927 91.6215C42.9466 91.6215 40.9297 91.481 38.9566 91.2074V88.5307C38.9566 87.5399 39.8043 86.7709 40.7762 86.8744C42.1573 87.0223 43.5677 87.0963 44.9927 87.0963C46.0888 87.0963 47.1776 87.0519 48.2519 86.9632C49.2091 86.8818 50.0276 87.6508 50.0276 88.6195V88.6269Z" fill="url(#paint8_linear_6_195)"/>
<path style="mix-blend-mode:multiply" opacity="0.88" fill-rule="evenodd" clip-rule="evenodd" d="M4.46492 46.0954C4.46492 47.3746 4.52338 48.639 4.6403 49.8886C4.728 50.8647 3.96801 51.7002 3.00341 51.7002H0.343456C0.116921 49.8665 0 47.9883 0 46.0954C0 44.2025 0.116921 42.3244 0.343456 40.4906H2.9961C3.9607 40.4906 4.72069 41.3262 4.633 42.3022C4.51608 43.5518 4.46492 44.8162 4.46492 46.0954V46.0954Z" fill="url(#paint9_linear_6_195)"/>
<path style="mix-blend-mode:multiply" opacity="0.88" fill-rule="evenodd" clip-rule="evenodd" d="M89.9927 46.0954C89.9927 47.9957 89.8758 49.8591 89.6565 51.7002H86.9893C86.0247 51.7002 85.2647 50.8647 85.3524 49.8886C85.4693 48.639 85.5278 47.3746 85.5278 46.0954C85.5278 44.8162 85.4693 43.5518 85.3597 42.3022C85.272 41.3262 86.032 40.4906 86.9966 40.4906H89.6492C89.8758 42.3244 89.9927 44.1951 89.9927 46.0954V46.0954Z" fill="url(#paint10_linear_6_195)"/>
<path style="mix-blend-mode:multiply" opacity="0.88" fill-rule="evenodd" clip-rule="evenodd" d="M18.9412 79.8721L17.0559 81.7798C16.0328 80.9591 15.0463 80.0939 14.0963 79.1845C12.3498 77.5208 10.7421 75.724 9.28061 73.7941L11.1587 71.8938C11.8456 71.1987 12.9782 71.2505 13.5921 72.0121C15.1705 73.9789 16.9316 75.7905 18.8462 77.4246C19.577 78.0532 19.6208 79.1771 18.9412 79.8647V79.8721Z" fill="url(#paint11_linear_6_195)"/>
<path style="mix-blend-mode:multiply" opacity="0.88" fill-rule="evenodd" clip-rule="evenodd" d="M80.2663 17.8274L78.381 19.7351C77.7014 20.4228 76.5833 20.3784 75.9695 19.639C74.3545 17.7017 72.5641 15.9197 70.6203 14.3152C69.8676 13.6941 69.8165 12.548 70.5034 11.8529L72.3741 9.95999C73.9964 11.2244 75.531 12.5923 76.9633 14.0564C78.1325 15.2468 79.2359 16.5039 80.2663 17.8274V17.8274Z" fill="url(#paint12_linear_6_195)"/>
<path style="mix-blend-mode:multiply" opacity="0.88" fill-rule="evenodd" clip-rule="evenodd" d="M18.8462 14.7588C16.9316 16.3929 15.1705 18.2045 13.5848 20.164C12.9709 20.9256 11.8383 20.9773 11.1513 20.2823L9.28061 18.3894C10.1429 17.258 11.0563 16.1711 12.0136 15.1285C13.5702 13.4279 15.2582 11.8455 17.0559 10.4036L18.9412 12.3113C19.6208 12.999 19.577 14.1303 18.8462 14.7514V14.7588Z" fill="url(#paint13_linear_6_195)"/>
<path style="mix-blend-mode:multiply" opacity="0.88" fill-rule="evenodd" clip-rule="evenodd" d="M80.2663 74.3635C79.0021 75.9828 77.621 77.5134 76.1522 78.9405C74.9537 80.1088 73.6895 81.2105 72.3668 82.2235L70.4961 80.3306C69.8092 79.6355 69.8603 78.4894 70.613 77.8683C72.5568 76.2712 74.3472 74.4892 75.9622 72.5519C76.5833 71.8125 77.6941 71.7681 78.3737 72.4558L80.259 74.3635H80.2663Z" fill="url(#paint14_linear_6_195)"/>
<path fill-rule="evenodd" clip-rule="evenodd" d="M50.0276 0.288374V2.76543C50.0276 3.85977 49.1068 4.71011 48.0326 4.62877C47.0315 4.55483 46.0157 4.51786 44.9927 4.51786C43.5677 4.51786 42.1647 4.5918 40.7762 4.73968C39.8043 4.8432 38.9566 4.0742 38.9566 3.08338V0.406681C40.9297 0.14049 42.9466 0 44.9927 0C46.6953 0 48.3761 0.0961246 50.0276 0.288374Z" fill="url(#paint15_linear_6_195)"/>
<path fill-rule="evenodd" clip-rule="evenodd" d="M50.0276 88.0723V90.7786C48.3761 90.9708 46.6953 91.0669 44.9927 91.0669C42.9466 91.0669 40.9297 90.9265 38.9566 90.6529V87.9762C38.9566 86.9854 39.8043 86.2163 40.7762 86.3199C42.1573 86.4678 43.5677 86.5417 44.9927 86.5417C46.0888 86.5417 47.1776 86.4973 48.2519 86.4086C49.2091 86.3273 50.0276 87.0963 50.0276 88.0649V88.0723Z" fill="url(#paint16_linear_6_195)"/>
<path fill-rule="evenodd" clip-rule="evenodd" d="M4.46492 45.5335C4.46492 46.8127 4.52338 48.0771 4.6403 49.3267C4.728 50.3027 3.96801 51.1383 3.00341 51.1383H0.343456C0.116921 49.3045 0 47.4264 0 45.5335C0 43.6406 0.116921 41.7624 0.343456 39.9287H2.9961C3.9607 39.9287 4.72069 40.7642 4.633 41.7402C4.51608 42.9899 4.46492 44.2543 4.46492 45.5335V45.5335Z" fill="url(#paint17_linear_6_195)"/>
<path fill-rule="evenodd" clip-rule="evenodd" d="M44.6785 47.0271L44.7369 47.0788L44.6638 47.0567H44.6419L44.6273 47.0493H44.6054L44.5908 47.0567L44.5688 47.0641L44.5031 47.0788L44.5469 47.0271L44.4885 47.0049L44.5469 46.9901L44.4885 46.931L44.5688 46.9531L44.5469 46.9014L44.5981 46.9384L44.6127 46.8644L44.6346 46.9384L44.6785 46.9014L44.6638 46.9531L44.7369 46.931L44.6785 46.9901L44.7442 47.0049L44.6785 47.0271Z" fill="url(#paint18_linear_6_195)"/>
<path fill-rule="evenodd" clip-rule="evenodd" d="M89.9927 45.5335C89.9927 47.4338 89.8758 49.2971 89.6565 51.1383H86.9893C86.0247 51.1383 85.2647 50.3027 85.3524 49.3267C85.4693 48.0771 85.5278 46.8127 85.5278 45.5335C85.5278 44.2543 85.4693 42.9899 85.3597 41.7402C85.272 40.7642 86.032 39.9287 86.9966 39.9287H89.6492C89.8758 41.7624 89.9927 43.6332 89.9927 45.5335V45.5335Z" fill="url(#paint19_linear_6_195)"/>
<path fill-rule="evenodd" clip-rule="evenodd" d="M18.9412 79.3102L17.0559 81.2179C16.0328 80.3971 15.0463 79.532 14.0963 78.6225C12.3498 76.9588 10.7421 75.162 9.28061 73.2321L11.1587 71.3318C11.8456 70.6368 12.9782 70.6885 13.5921 71.4501C15.1705 73.417 16.9316 75.2286 18.8462 76.8627C19.577 77.4912 19.6208 78.6151 18.9412 79.3028V79.3102Z" fill="url(#paint20_linear_6_195)"/>
<path fill-rule="evenodd" clip-rule="evenodd" d="M44.6785 47.0271L44.7369 47.0788L44.6638 47.0567H44.6419L44.6273 47.0493H44.6054L44.5908 47.0567L44.5688 47.0641L44.5031 47.0788L44.5469 47.0271L44.4885 47.0049L44.5469 46.9901L44.4885 46.931L44.5688 46.9531L44.5469 46.9014L44.5981 46.9384L44.6127 46.8644L44.6346 46.9384L44.6785 46.9014L44.6638 46.9531L44.7369 46.931L44.6785 46.9901L44.7442 47.0049L44.6785 47.0271Z" fill="url(#paint21_linear_6_195)"/>
<path fill-rule="evenodd" clip-rule="evenodd" d="M80.2663 17.2655L78.381 19.1732C77.7014 19.8608 76.5833 19.8165 75.9695 19.077C74.3545 17.1398 72.5641 15.3578 70.6203 13.7532C69.8676 13.1321 69.8165 11.986 70.5034 11.291L72.3741 9.39804C73.9964 10.6624 75.531 12.0304 76.9633 13.4944C78.1325 14.6849 79.2359 15.9419 80.2663 17.2655V17.2655Z" fill="url(#paint22_linear_6_195)"/>
<path fill-rule="evenodd" clip-rule="evenodd" d="M18.8462 14.1969C16.9316 15.831 15.1705 17.6426 13.5848 19.602C12.9709 20.3636 11.8383 20.4154 11.1513 19.7203L9.28061 17.8274C10.1429 16.6961 11.0563 15.6092 12.0136 14.5666C13.5702 12.8659 15.2582 11.2835 17.0559 9.84167L18.9412 11.7494C19.6208 12.437 19.577 13.5684 18.8462 14.1895V14.1969Z" fill="url(#paint23_linear_6_195)"/>
<path fill-rule="evenodd" clip-rule="evenodd" d="M44.6785 47.0271L44.7369 47.0788L44.6638 47.0567H44.6419L44.6273 47.0493H44.6054L44.5908 47.0567L44.5688 47.0641L44.5031 47.0788L44.5469 47.0271L44.4885 47.0049L44.5469 46.9901L44.4885 46.931L44.5688 46.9531L44.5469 46.9014L44.5981 46.9384L44.6127 46.8644L44.6346 46.9384L44.6785 46.9014L44.6638 46.9531L44.7369 46.931L44.6785 46.9901L44.7442 47.0049L44.6785 47.0271Z" fill="url(#paint24_linear_6_195)"/>
<path fill-rule="evenodd" clip-rule="evenodd" d="M80.2663 73.8015C79.0021 75.4208 77.621 76.9514 76.1522 78.3785C74.9537 79.5468 73.6895 80.6485 72.3668 81.6616L70.4961 79.7686C69.8092 79.0736 69.8603 77.9275 70.613 77.3064C72.5568 75.7092 74.3472 73.9272 75.9622 71.9899C76.5833 71.2505 77.6941 71.2062 78.3737 71.8938L80.259 73.8015H80.2663Z" fill="url(#paint25_linear_6_195)"/>
<g style="mix-blend-mode:multiply" opacity="0.5">
<path fill-rule="evenodd" clip-rule="evenodd" d="M1.49805 57.1793C1.49805 57.1793 10.5229 89.6325 45.0585 89.3145C81.3917 88.9818 88.6189 56.7431 88.6189 56.7431C88.6189 56.7431 81.0336 91.067 44.9927 91.067C8.95177 91.067 1.49805 57.1793 1.49805 57.1793Z" fill="#5C776B"/>
</g>
<path d="M42.4935 77.8757C40.9881 77.7574 39.4828 77.5282 38.014 77.2029L38.3428 75.7018C39.7385 76.0124 41.1781 76.2342 42.6104 76.3451L42.4935 77.8757V77.8757ZM48.5222 77.7796L48.3542 76.2564C49.7865 76.1011 51.2114 75.8349 52.5999 75.4726L52.9799 76.9588C51.5257 77.3359 50.0276 77.6095 48.5222 77.7796ZM32.2702 75.3173C30.8891 74.711 29.5372 74.0012 28.2511 73.2026L29.0476 71.8938C30.2679 72.6554 31.5614 73.3283 32.8767 73.9124L32.2775 75.3247L32.2702 75.3173ZM58.6578 74.8885L58.0075 73.4984C59.3009 72.8772 60.5724 72.16 61.7709 71.3614L62.6039 72.648C61.347 73.4836 60.017 74.2378 58.6578 74.8885ZM23.4281 69.5277C22.31 68.4999 21.265 67.3834 20.3004 66.2151L21.4696 65.2316C22.3831 66.3482 23.3842 67.4129 24.4511 68.389L23.4281 69.5277ZM67.31 68.8252L66.2504 67.7235C67.2808 66.7105 68.2527 65.6161 69.1296 64.47L70.328 65.4091C69.4073 66.6144 68.3842 67.7605 67.3027 68.8178L67.31 68.8252ZM16.9024 61.1722C16.1789 59.8413 15.5359 58.4438 15.0024 57.0167L16.4201 56.4695C16.9316 57.8301 17.5382 59.161 18.2324 60.4254L16.9024 61.1648V61.1722ZM73.5653 60.2627L72.2134 59.5603C72.8638 58.2663 73.4337 56.9132 73.9014 55.5378L75.3337 56.0333C74.8441 57.4751 74.2522 58.8948 73.5653 60.2553V60.2627ZM13.4094 51.1235C13.1536 49.6225 13.0002 48.0919 12.949 46.5687L14.469 46.5243C14.5128 47.9736 14.659 49.4376 14.9074 50.8647L13.4094 51.1309V51.1235ZM76.7368 50.1031L75.2314 49.8887C75.4287 48.4542 75.531 46.9902 75.531 45.5335C75.531 45.3634 75.531 45.1934 75.531 45.0233L77.051 45.0011C77.051 45.1786 77.051 45.3634 77.051 45.5409C77.051 47.0715 76.9414 48.6095 76.7368 50.1105V50.1031ZM14.8271 40.7125L13.329 40.4759C13.5628 38.9674 13.9063 37.4664 14.3448 36.0098L15.799 36.4608C15.3751 37.8509 15.0536 39.278 14.8344 40.7125H14.8271ZM74.9026 39.2336C74.6103 37.814 74.2157 36.4017 73.7334 35.0337L75.1583 34.5161C75.6699 35.9506 76.0864 37.4368 76.386 38.9231L74.8953 39.2336H74.9026ZM17.9912 31.0852L16.6466 30.368C17.3482 29.0222 18.1593 27.7135 19.0435 26.4786L20.2712 27.3807C19.4235 28.5564 18.6562 29.806 17.9839 31.0852H17.9912ZM71.278 29.7765C70.5473 28.5268 69.7215 27.3216 68.8227 26.1903L70.0065 25.229C70.9492 26.4195 71.8188 27.6839 72.5861 28.9927L71.278 29.7765ZM24.0784 23.0182L23.0408 21.9016C24.1369 20.859 25.3207 19.883 26.5484 19.0031L27.4253 20.2601C26.2561 21.0957 25.1307 22.0273 24.0857 23.0182H24.0784ZM64.8181 22.0199C63.7293 21.0735 62.5601 20.201 61.347 19.4246L62.1582 18.1306C63.4297 18.944 64.6574 19.8608 65.8046 20.8517L64.8181 22.0199V22.0199ZM32.4091 17.369L31.7806 15.9715C33.1544 15.343 34.5867 14.8106 36.0263 14.3817L36.4501 15.8606C35.0763 16.2673 33.7098 16.7775 32.4018 17.3764L32.4091 17.369ZM56.2244 16.7848C54.8871 16.2525 53.506 15.8088 52.1103 15.4761L52.461 13.9824C53.9225 14.3374 55.384 14.7958 56.7798 15.3578L56.2244 16.7848ZM42.0989 14.7662L41.9527 13.2356C42.9539 13.1395 43.9696 13.0951 44.9781 13.0951H44.9927C45.4896 13.0951 45.9865 13.1099 46.4761 13.1321L46.4104 14.6701C45.9354 14.6479 45.4823 14.6109 44.9781 14.6405C44.0135 14.6405 43.0489 14.6849 42.0916 14.781L42.0989 14.7662Z" fill="url(#paint26_linear_6_195)"/>
<defs>
<linearGradient id="paint0_linear_6_195" x1="45" y1="91.0596" x2="45" y2="0" gradientUnits="userSpaceOnUse">
<stop stop-color="#9AAE05"/>
<stop offset="0.04" stop-color="#9B9D05"/>
<stop offset="1" stop-color="#B8BA0F"/>
</linearGradient>
<linearGradient id="paint1_linear_6_195" x1="44.5615" y1="47.1306" x2="44.6733" y2="46.8876" gradientUnits="userSpaceOnUse">
<stop stop-color="#13001D"/>
<stop offset="1" stop-color="#2F042F"/>
</linearGradient>
<linearGradient id="paint2_linear_6_195" x1="44.9966" y1="71.9737" x2="44.9966" y2="19.0904" gradientUnits="userSpaceOnUse">
<stop stop-color="#F9D5D1"/>
<stop offset="0.06" stop-color="#F9D6D2"/>
<stop offset="0.53" stop-color="#FDE2DB"/>
<stop offset="1" stop-color="#FFE7DE"/>
</linearGradient>
<linearGradient id="paint3_linear_6_195" x1="45" y1="78.1567" x2="45" y2="12.9103" gradientUnits="userSpaceOnUse">
<stop offset="0.02" stop-color="white"/>
<stop offset="0.99" stop-color="#BA8B1D"/>
</linearGradient>
<linearGradient id="paint4_linear_6_195" x1="45" y1="78.1567" x2="45" y2="14.3226" gradientUnits="userSpaceOnUse">
<stop stop-color="#A188B0"/>
<stop offset="0.01" stop-color="#9880A6"/>
<stop offset="0.08" stop-color="#74627F"/>
<stop offset="0.14" stop-color="#54475C"/>
<stop offset="0.22" stop-color="#3A313F"/>
<stop offset="0.3" stop-color="#241F28"/>
<stop offset="0.4" stop-color="#141116"/>
<stop offset="0.51" stop-color="#080709"/>
<stop offset="0.66" stop-color="#010102"/>
<stop offset="0.99"/>
</linearGradient>
<linearGradient id="paint5_linear_6_195" x1="40.7981" y1="43.7884" x2="54.7972" y2="14.0272" gradientUnits="userSpaceOnUse">
<stop stop-color="white"/>
<stop offset="0.99" stop-color="#9C9500"/>
</linearGradient>
<linearGradient id="paint6_linear_6_195" x1="44.62" y1="47.0788" x2="44.62" y2="46.8644" gradientUnits="userSpaceOnUse">
<stop stop-color="#F9D5D1"/>
<stop offset="0.06" stop-color="#F9D6D2"/>
<stop offset="0.53" stop-color="#FDE2DB"/>
<stop offset="1" stop-color="#FFE7DE"/>
</linearGradient>
<linearGradient id="paint7_linear_6_195" x1="44.4958" y1="5.30903" x2="44.4958" y2="0.561951" gradientUnits="userSpaceOnUse">
<stop stop-color="#C2A2E0"/>
<stop offset="0.99" stop-color="#9C7500"/>
</linearGradient>
<linearGradient id="paint8_linear_6_195" x1="38.9566" y1="89.248" x2="50.0276" y2="89.248" gradientUnits="userSpaceOnUse">
<stop stop-color="white"/>
<stop offset="0.99" stop-color="#9C9500"/>
</linearGradient>
<linearGradient id="paint9_linear_6_195" x1="2.32381" y1="51.7002" x2="2.32381" y2="40.4906" gradientUnits="userSpaceOnUse">
<stop stop-color="#C2A2E0"/>
<stop offset="0.99" stop-color="#9C7500"/>
</linearGradient>
<linearGradient id="paint10_linear_6_195" x1="87.6689" y1="51.7002" x2="87.6689" y2="40.4906" gradientUnits="userSpaceOnUse">
<stop stop-color="#C2A2E0"/>
<stop offset="0.99" stop-color="#9C7500"/>
</linearGradient>
<linearGradient id="paint11_linear_6_195" x1="14.3521" y1="81.7798" x2="14.3521" y2="71.4058" gradientUnits="userSpaceOnUse">
<stop stop-color="#C2A2E0"/>
<stop offset="0.99" stop-color="#9C7500"/>
</linearGradient>
<linearGradient id="paint12_linear_6_195" x1="75.1437" y1="20.2231" x2="75.1437" y2="9.95999" gradientUnits="userSpaceOnUse">
<stop stop-color="#C2A2E0"/>
<stop offset="0.99" stop-color="#9C7500"/>
</linearGradient>
<linearGradient id="paint13_linear_6_195" x1="14.3521" y1="20.7777" x2="14.3521" y2="10.411" gradientUnits="userSpaceOnUse">
<stop stop-color="#C2A2E0"/>
<stop offset="0.99" stop-color="#9C7500"/>
</linearGradient>
<linearGradient id="paint14_linear_6_195" x1="70.0211" y1="77.0919" x2="80.2663" y2="77.0919" gradientUnits="userSpaceOnUse">
<stop stop-color="white"/>
<stop offset="0.99" stop-color="#9C9500"/>
</linearGradient>
<linearGradient id="paint15_linear_6_195" x1="44.4958" y1="4.74708" x2="44.4958" y2="0" gradientUnits="userSpaceOnUse">
<stop stop-color="#F9D5D1"/>
<stop offset="0.06" stop-color="#F9D6D2"/>
<stop offset="0.53" stop-color="#FDE2DB"/>
<stop offset="1" stop-color="#FFE7DE"/>
</linearGradient>
<linearGradient id="paint16_linear_6_195" x1="44.4958" y1="91.0669" x2="44.4958" y2="86.3125" gradientUnits="userSpaceOnUse">
<stop stop-color="#F9D5D1"/>
<stop offset="0.06" stop-color="#F9D6D2"/>
<stop offset="0.53" stop-color="#FDE2DB"/>
<stop offset="1" stop-color="#FFE7DE"/>
</linearGradient>
<linearGradient id="paint17_linear_6_195" x1="2.32381" y1="51.1383" x2="2.32381" y2="39.9287" gradientUnits="userSpaceOnUse">
<stop stop-color="#F9D5D1"/>
<stop offset="0.06" stop-color="#F9D6D2"/>
<stop offset="0.53" stop-color="#FDE2DB"/>
<stop offset="1" stop-color="#FFE7DE"/>
</linearGradient>
<linearGradient id="paint18_linear_6_195" x1="44.62" y1="47.0788" x2="44.62" y2="46.8644" gradientUnits="userSpaceOnUse">
<stop stop-color="#F9D5D1"/>
<stop offset="0.06" stop-color="#F9D6D2"/>
<stop offset="0.53" stop-color="#FDE2DB"/>
<stop offset="1" stop-color="#FFE7DE"/>
</linearGradient>
<linearGradient id="paint19_linear_6_195" x1="87.6689" y1="51.1383" x2="87.6689" y2="39.9287" gradientUnits="userSpaceOnUse">
<stop stop-color="#F9D5D1"/>
<stop offset="0.06" stop-color="#F9D6D2"/>
<stop offset="0.53" stop-color="#FDE2DB"/>
<stop offset="1" stop-color="#FFE7DE"/>
</linearGradient>
<linearGradient id="paint20_linear_6_195" x1="14.3521" y1="81.2179" x2="14.3521" y2="70.8438" gradientUnits="userSpaceOnUse">
<stop stop-color="#F9D5D1"/>
<stop offset="0.06" stop-color="#F9D6D2"/>
<stop offset="0.53" stop-color="#FDE2DB"/>
<stop offset="1" stop-color="#FFE7DE"/>
</linearGradient>
<linearGradient id="paint21_linear_6_195" x1="44.62" y1="47.0788" x2="44.62" y2="46.8644" gradientUnits="userSpaceOnUse">
<stop stop-color="#F9D5D1"/>
<stop offset="0.06" stop-color="#F9D6D2"/>
<stop offset="0.53" stop-color="#FDE2DB"/>
<stop offset="1" stop-color="#FFE7DE"/>
</linearGradient>
<linearGradient id="paint22_linear_6_195" x1="75.1437" y1="19.6612" x2="75.1437" y2="9.39804" gradientUnits="userSpaceOnUse">
<stop stop-color="#F9D5D1"/>
<stop offset="0.06" stop-color="#F9D6D2"/>
<stop offset="0.53" stop-color="#FDE2DB"/>
<stop offset="1" stop-color="#FFE7DE"/>
</linearGradient>
<linearGradient id="paint23_linear_6_195" x1="14.3521" y1="20.2157" x2="14.3521" y2="9.84907" gradientUnits="userSpaceOnUse">
<stop stop-color="#F9D5D1"/>
<stop offset="0.06" stop-color="#F9D6D2"/>
<stop offset="0.53" stop-color="#FDE2DB"/>
<stop offset="1" stop-color="#FFE7DE"/>
</linearGradient>
<linearGradient id="paint24_linear_6_195" x1="44.62" y1="47.0788" x2="44.62" y2="46.8644" gradientUnits="userSpaceOnUse">
<stop stop-color="#F9D5D1"/>
<stop offset="0.06" stop-color="#F9D6D2"/>
<stop offset="0.53" stop-color="#FDE2DB"/>
<stop offset="1" stop-color="#FFE7DE"/>
</linearGradient>
<linearGradient id="paint25_linear_6_195" x1="75.1437" y1="81.6616" x2="75.1437" y2="71.4058" gradientUnits="userSpaceOnUse">
<stop stop-color="#F9D5D1"/>
<stop offset="0.06" stop-color="#F9D6D2"/>
<stop offset="0.53" stop-color="#FDE2DB"/>
<stop offset="1" stop-color="#FFE7DE"/>
</linearGradient>
<linearGradient id="paint26_linear_6_195" x1="12.9563" y1="45.4817" x2="77.0583" y2="45.4817" gradientUnits="userSpaceOnUse">
<stop stop-color="#EEE7F4"/>
<stop offset="0.47" stop-color="#EBE2F2"/>
<stop offset="0.94" stop-color="#E5D6EE"/>
<stop offset="1" stop-color="#E5D5EE"/>
</linearGradient>
</defs>
</svg>
