<svg width="56" height="37" viewBox="0 0 56 37" fill="none" xmlns="http://www.w3.org/2000/svg">
<path d="M1 32.8226C10.7581 31.0484 31.6935 25.7258 37.371 18.629" stroke="white" stroke-linecap="round"/>
<path d="M27.8437 15.3872C29.9727 18.2259 27.548 23.0753 26.0695 25.1452C26.9566 23.371 25.1824 20.7098 24.2953 18.9356C23.4082 17.1614 25.1824 11.8388 27.8437 15.3872Z" fill="white" stroke="white"/>
<path d="M34.6197 31.3519C31.0887 31.7025 28.1966 27.1164 27.1919 24.7795C28.25 26.4574 31.4455 26.3183 33.4226 26.4786C35.3997 26.6388 39.0335 30.9136 34.6197 31.3519Z" fill="white" stroke="white"/>
<path d="M28.2416 33.9041C25.135 34.2126 22.5906 30.1777 21.7067 28.1217C22.6376 29.5979 25.4489 29.4756 27.1884 29.6166C28.9278 29.7576 32.1248 33.5185 28.2416 33.9041Z" fill="white" stroke="white"/>
<path d="M17.9518 19.6168C16.7889 22.514 19.9537 26.0831 21.6815 27.5054C20.5236 26.1997 21.4254 23.5341 21.7753 21.8243C22.1251 20.1146 19.4054 15.9954 17.9518 19.6168Z" fill="white" stroke="white"/>
<path d="M19.1496 35.2968C16.7264 34.9447 15.2786 31.4418 14.8576 29.7344C15.3873 31.016 17.5606 31.4522 18.8781 31.8845C20.1957 32.3169 22.1787 35.7369 19.1496 35.2968Z" fill="white" stroke="white"/>
<path d="M40.4263 1.31607C41.1989 0.579318 42.414 0.579317 43.1867 1.31607L45.008 3.0528C45.4118 3.43788 45.9582 3.63673 46.5151 3.60133L49.0267 3.44166C50.0921 3.37392 51.0229 4.15496 51.1412 5.216L51.4201 7.71714C51.482 8.27172 51.7727 8.77524 52.222 9.10608L54.2486 10.5982C55.1084 11.2311 55.3194 12.4278 54.728 13.3166L53.3339 15.4119C53.0248 15.8764 52.9238 16.449 53.0554 16.9913L53.6488 19.437C53.9005 20.4745 53.293 21.5268 52.2686 21.8276L49.8539 22.5365C49.3185 22.6937 48.8731 23.0675 48.6253 23.5674L47.5078 25.8224C47.0337 26.7789 45.8919 27.1945 44.9139 26.7665L42.6084 25.7574C42.0972 25.5337 41.5158 25.5337 41.0046 25.7574L38.6991 26.7665C37.721 27.1945 36.5792 26.7789 36.1052 25.8224L34.9876 23.5674C34.7399 23.0675 34.2945 22.6937 33.7591 22.5365L31.3443 21.8276C30.32 21.5268 29.7124 20.4745 29.9641 19.437L30.5575 16.9913C30.6891 16.449 30.5881 15.8764 30.279 15.4119L28.885 13.3166C28.2936 12.4278 28.5046 11.2311 29.3643 10.5982L31.3909 9.10608C31.8403 8.77524 32.131 8.27172 32.1928 7.71714L32.4717 5.216C32.59 4.15496 33.5208 3.37392 34.5863 3.44166L37.0978 3.60133C37.6547 3.63673 38.2011 3.43788 38.6049 3.0528L40.4263 1.31607Z" fill="white"/>
<path d="M12.3778 22.1523C10.9342 24.1303 12.4245 27.6152 13.3501 29.1105C12.8049 27.8355 14.0135 25.9773 14.6262 24.7333C15.2389 23.4894 14.1822 19.6799 12.3778 22.1523Z" fill="white" stroke="white"/>
<circle cx="41.8065" cy="14.1935" r="4.82258" stroke="#314B94"/>
</svg>
