<svg width="200" height="125" viewBox="0 0 200 125" fill="none" xmlns="http://www.w3.org/2000/svg">
<path d="M48.1477 108.366L43.3068 90.9113H46.0767L49.4773 104.428H49.6392L53.1761 90.9113H55.9205L59.4574 104.437H59.6193L63.0114 90.9113H65.7898L60.9403 108.366H58.2898L54.6165 95.292H54.4801L50.8068 108.366H48.1477ZM70.5071 108.656C69.6776 108.656 68.9276 108.502 68.2571 108.195C67.5866 107.883 67.0554 107.431 66.6634 106.84C66.277 106.249 66.0838 105.525 66.0838 104.667C66.0838 103.928 66.2259 103.32 66.5099 102.843C66.794 102.366 67.1776 101.988 67.6605 101.71C68.1435 101.431 68.6832 101.221 69.2798 101.079C69.8764 100.937 70.4844 100.829 71.1037 100.755C71.8878 100.664 72.5241 100.59 73.0128 100.533C73.5014 100.471 73.8565 100.372 74.0781 100.235C74.2997 100.099 74.4105 99.8772 74.4105 99.5704V99.5107C74.4105 98.7664 74.2003 98.1897 73.7798 97.7806C73.3651 97.3715 72.7457 97.167 71.9219 97.167C71.0639 97.167 70.3878 97.3573 69.8935 97.738C69.4048 98.113 69.0668 98.5306 68.8793 98.9908L66.4844 98.4454C66.7685 97.6499 67.1832 97.0079 67.7287 96.5193C68.2798 96.0249 68.9134 95.667 69.6293 95.4454C70.3452 95.2181 71.098 95.1045 71.8878 95.1045C72.4105 95.1045 72.9645 95.167 73.5497 95.292C74.1406 95.4113 74.6918 95.6329 75.2031 95.9568C75.7202 96.2806 76.1435 96.7437 76.473 97.346C76.8026 97.9425 76.9673 98.7181 76.9673 99.6727V108.366H74.4787V106.576H74.3764C74.2116 106.906 73.9645 107.229 73.6349 107.548C73.3054 107.866 72.8821 108.13 72.3651 108.34C71.848 108.551 71.2287 108.656 70.5071 108.656ZM71.0611 106.61C71.7656 106.61 72.3679 106.471 72.8679 106.193C73.3736 105.914 73.7571 105.551 74.0185 105.102C74.2855 104.647 74.419 104.161 74.419 103.644V101.957C74.3281 102.048 74.152 102.133 73.8906 102.212C73.6349 102.286 73.3423 102.352 73.0128 102.408C72.6832 102.46 72.3622 102.508 72.0497 102.553C71.7372 102.593 71.4759 102.627 71.2656 102.656C70.7713 102.718 70.3196 102.823 69.9105 102.971C69.5071 103.119 69.1832 103.332 68.9389 103.61C68.7003 103.883 68.581 104.247 68.581 104.701C68.581 105.332 68.8139 105.809 69.2798 106.133C69.7457 106.451 70.3395 106.61 71.0611 106.61ZM82.9098 90.9113V108.366H80.3615V90.9113H82.9098ZM88.8864 90.9113V108.366H86.3381V90.9113H88.8864ZM92.3146 113.275V95.2749H94.8033V97.3971H95.0163C95.1641 97.1244 95.3771 96.809 95.6555 96.4511C95.9339 96.0931 96.3203 95.7806 96.8146 95.5136C97.3089 95.2408 97.9624 95.1045 98.7749 95.1045C99.8317 95.1045 100.775 95.3715 101.604 95.9056C102.434 96.4397 103.085 97.2096 103.556 98.2153C104.033 99.221 104.272 100.431 104.272 101.846C104.272 103.261 104.036 104.474 103.565 105.485C103.093 106.491 102.445 107.266 101.621 107.812C100.798 108.352 99.8572 108.622 98.8004 108.622C98.005 108.622 97.3544 108.488 96.8487 108.221C96.3487 107.954 95.9567 107.641 95.6726 107.283C95.3885 106.926 95.1697 106.607 95.0163 106.329H94.8629V113.275H92.3146ZM94.8118 101.82C94.8118 102.741 94.9453 103.548 95.2124 104.241C95.4794 104.934 95.8658 105.477 96.3714 105.869C96.8771 106.255 97.4964 106.448 98.2294 106.448C98.9908 106.448 99.6271 106.247 100.138 105.843C100.65 105.434 101.036 104.88 101.298 104.181C101.565 103.482 101.698 102.695 101.698 101.82C101.698 100.957 101.567 100.181 101.306 99.4937C101.05 98.8062 100.664 98.2636 100.147 97.8658C99.6357 97.4681 98.9964 97.2693 98.2294 97.2693C97.4908 97.2693 96.8658 97.4596 96.3544 97.8403C95.8487 98.221 95.4652 98.7522 95.2038 99.434C94.9425 100.116 94.8118 100.911 94.8118 101.82ZM110.937 108.656C110.107 108.656 109.357 108.502 108.687 108.195C108.016 107.883 107.485 107.431 107.093 106.84C106.707 106.249 106.513 105.525 106.513 104.667C106.513 103.928 106.656 103.32 106.94 102.843C107.224 102.366 107.607 101.988 108.09 101.71C108.573 101.431 109.113 101.221 109.71 101.079C110.306 100.937 110.914 100.829 111.533 100.755C112.317 100.664 112.954 100.59 113.442 100.533C113.931 100.471 114.286 100.372 114.508 100.235C114.729 100.099 114.84 99.8772 114.84 99.5704V99.5107C114.84 98.7664 114.63 98.1897 114.21 97.7806C113.795 97.3715 113.175 97.167 112.352 97.167C111.494 97.167 110.817 97.3573 110.323 97.738C109.835 98.113 109.496 98.5306 109.309 98.9908L106.914 98.4454C107.198 97.6499 107.613 97.0079 108.158 96.5193C108.71 96.0249 109.343 95.667 110.059 95.4454C110.775 95.2181 111.528 95.1045 112.317 95.1045C112.84 95.1045 113.394 95.167 113.979 95.292C114.57 95.4113 115.121 95.6329 115.633 95.9568C116.15 96.2806 116.573 96.7437 116.903 97.346C117.232 97.9425 117.397 98.7181 117.397 99.6727V108.366H114.908V106.576H114.806C114.641 106.906 114.394 107.229 114.065 107.548C113.735 107.866 113.312 108.13 112.795 108.34C112.278 108.551 111.658 108.656 110.937 108.656ZM111.491 106.61C112.195 106.61 112.798 106.471 113.298 106.193C113.803 105.914 114.187 105.551 114.448 105.102C114.715 104.647 114.849 104.161 114.849 103.644V101.957C114.758 102.048 114.582 102.133 114.32 102.212C114.065 102.286 113.772 102.352 113.442 102.408C113.113 102.46 112.792 102.508 112.479 102.553C112.167 102.593 111.906 102.627 111.695 102.656C111.201 102.718 110.749 102.823 110.34 102.971C109.937 103.119 109.613 103.332 109.369 103.61C109.13 103.883 109.011 104.247 109.011 104.701C109.011 105.332 109.244 105.809 109.71 106.133C110.175 106.451 110.769 106.61 111.491 106.61ZM120.791 113.275V95.2749H123.28V97.3971H123.493C123.641 97.1244 123.854 96.809 124.132 96.4511C124.411 96.0931 124.797 95.7806 125.291 95.5136C125.786 95.2408 126.439 95.1045 127.251 95.1045C128.308 95.1045 129.251 95.3715 130.081 95.9056C130.911 96.4397 131.561 97.2096 132.033 98.2153C132.51 99.221 132.749 100.431 132.749 101.846C132.749 103.261 132.513 104.474 132.041 105.485C131.57 106.491 130.922 107.266 130.098 107.812C129.274 108.352 128.334 108.622 127.277 108.622C126.482 108.622 125.831 108.488 125.325 108.221C124.825 107.954 124.433 107.641 124.149 107.283C123.865 106.926 123.646 106.607 123.493 106.329H123.339V113.275H120.791ZM123.288 101.82C123.288 102.741 123.422 103.548 123.689 104.241C123.956 104.934 124.342 105.477 124.848 105.869C125.354 106.255 125.973 106.448 126.706 106.448C127.467 106.448 128.104 106.247 128.615 105.843C129.126 105.434 129.513 104.88 129.774 104.181C130.041 103.482 130.175 102.695 130.175 101.82C130.175 100.957 130.044 100.181 129.783 99.4937C129.527 98.8062 129.141 98.2636 128.624 97.8658C128.112 97.4681 127.473 97.2693 126.706 97.2693C125.967 97.2693 125.342 97.4596 124.831 97.8403C124.325 98.221 123.942 98.7522 123.68 99.434C123.419 100.116 123.288 100.911 123.288 101.82ZM141.246 108.63C139.956 108.63 138.845 108.354 137.913 107.803C136.987 107.247 136.271 106.465 135.766 105.46C135.266 104.448 135.016 103.264 135.016 101.906C135.016 100.565 135.266 99.3829 135.766 98.3602C136.271 97.3374 136.976 96.5391 137.879 95.9653C138.788 95.3914 139.851 95.1045 141.067 95.1045C141.805 95.1045 142.521 95.2266 143.214 95.471C143.908 95.7153 144.53 96.0988 145.081 96.6215C145.632 97.1443 146.067 97.8232 146.385 98.6585C146.703 99.488 146.862 100.497 146.862 101.684V102.587H136.456V100.678H144.365C144.365 100.008 144.229 99.4141 143.956 98.8971C143.683 98.3744 143.3 97.9624 142.805 97.6613C142.317 97.3602 141.743 97.2096 141.084 97.2096C140.368 97.2096 139.743 97.3857 139.209 97.738C138.68 98.0846 138.271 98.5391 137.982 99.1016C137.697 99.6585 137.555 100.264 137.555 100.917V102.408C137.555 103.283 137.709 104.028 138.016 104.641C138.328 105.255 138.763 105.724 139.32 106.048C139.876 106.366 140.527 106.525 141.271 106.525C141.754 106.525 142.195 106.457 142.592 106.32C142.99 106.178 143.334 105.968 143.624 105.69C143.913 105.411 144.135 105.068 144.288 104.658L146.7 105.093C146.507 105.803 146.161 106.426 145.661 106.96C145.166 107.488 144.544 107.9 143.794 108.195C143.05 108.485 142.2 108.63 141.246 108.63ZM149.69 108.366V95.2749H152.153V97.3545H152.289C152.528 96.6499 152.948 96.096 153.55 95.6925C154.158 95.2835 154.846 95.0789 155.613 95.0789C155.772 95.0789 155.96 95.0846 156.175 95.096C156.397 95.1073 156.57 95.1215 156.695 95.1386V97.5761C156.593 97.5477 156.411 97.5164 156.15 97.4823C155.888 97.4425 155.627 97.4227 155.366 97.4227C154.763 97.4227 154.227 97.5505 153.755 97.8062C153.289 98.0562 152.92 98.4056 152.647 98.8545C152.374 99.2977 152.238 99.8033 152.238 100.372V108.366H149.69Z" fill="white"/>
<path d="M70.9756 24.878C70.9756 21.579 72.2862 18.4151 74.6189 16.0823C76.9517 13.7496 80.1156 12.439 83.4146 12.439H93.7805C94.3303 12.439 94.8577 12.6574 95.2464 13.0462C95.6352 13.435 95.8537 13.9624 95.8537 14.5122C95.8537 15.062 95.6352 15.5894 95.2464 15.9781C94.8577 16.3669 94.3303 16.5854 93.7805 16.5854H83.4146C81.2153 16.5854 79.106 17.4591 77.5508 19.0142C75.9956 20.5694 75.122 22.6787 75.122 24.878V35.2439C75.122 35.7937 74.9035 36.3211 74.5147 36.7099C74.1259 37.0987 73.5986 37.3171 73.0488 37.3171C72.4989 37.3171 71.9716 37.0987 71.5828 36.7099C71.194 36.3211 70.9756 35.7937 70.9756 35.2439V24.878ZM104.146 14.5122C104.146 13.9624 104.365 13.435 104.754 13.0462C105.142 12.6574 105.67 12.439 106.22 12.439H116.585C119.884 12.439 123.048 13.7496 125.381 16.0823C127.714 18.4151 129.024 21.579 129.024 24.878V35.2439C129.024 35.7937 128.806 36.3211 128.417 36.7099C128.028 37.0987 127.501 37.3171 126.951 37.3171C126.401 37.3171 125.874 37.0987 125.485 36.7099C125.096 36.3211 124.878 35.7937 124.878 35.2439V24.878C124.878 22.6787 124.004 20.5694 122.449 19.0142C120.894 17.4591 118.785 16.5854 116.585 16.5854H106.22C105.67 16.5854 105.142 16.3669 104.754 15.9781C104.365 15.5894 104.146 15.062 104.146 14.5122ZM73.0488 45.6098C73.5986 45.6098 74.1259 45.8282 74.5147 46.217C74.9035 46.6058 75.122 47.1331 75.122 47.6829V58.0488C75.122 59.5829 75.5407 61.0259 76.2705 62.2615L94.871 43.661C96.2316 42.3013 98.0765 41.5375 100 41.5375C101.924 41.5375 103.768 42.3013 105.129 43.661L123.73 62.2615C124.463 61.0259 124.878 59.5871 124.878 58.0488V47.6829C124.878 47.1331 125.096 46.6058 125.485 46.217C125.874 45.8282 126.401 45.6098 126.951 45.6098C127.501 45.6098 128.028 45.8282 128.417 46.217C128.806 46.6058 129.024 47.1331 129.024 47.6829V58.0488C129.024 61.3478 127.714 64.5117 125.381 66.8445C123.048 69.1773 119.884 70.4878 116.585 70.4878H106.22C105.67 70.4878 105.142 70.2694 104.754 69.8806C104.365 69.4918 104.146 68.9645 104.146 68.4146C104.146 67.8648 104.365 67.3375 104.754 66.9487C105.142 66.5599 105.67 66.3415 106.22 66.3415H116.585C118.12 66.3415 119.562 65.9227 120.798 65.1929L102.198 46.5924C101.614 46.0101 100.824 45.683 100 45.683C99.1759 45.683 98.3855 46.0101 97.8024 46.5924L79.202 65.1929C80.4376 65.9268 81.8763 66.3415 83.4146 66.3415H93.7805C94.3303 66.3415 94.8577 66.5599 95.2464 66.9487C95.6352 67.3375 95.8537 67.8648 95.8537 68.4146C95.8537 68.9645 95.6352 69.4918 95.2464 69.8806C94.8577 70.2694 94.3303 70.4878 93.7805 70.4878H83.4146C80.1156 70.4878 76.9517 69.1773 74.6189 66.8445C72.2862 64.5117 70.9756 61.3478 70.9756 58.0488V47.6829C70.9756 47.1331 71.194 46.6058 71.5828 46.217C71.9716 45.8282 72.4989 45.6098 73.0488 45.6098ZM110.366 29.0244C109.816 29.0244 109.289 29.2428 108.9 29.6316C108.511 30.0204 108.293 30.5477 108.293 31.0976C108.293 31.6474 108.511 32.1747 108.9 32.5635C109.289 32.9523 109.816 33.1707 110.366 33.1707C110.916 33.1707 111.443 32.9523 111.832 32.5635C112.221 32.1747 112.439 31.6474 112.439 31.0976C112.439 30.5477 112.221 30.0204 111.832 29.6316C111.443 29.2428 110.916 29.0244 110.366 29.0244ZM104.146 31.0976C104.146 30.2808 104.307 29.472 104.62 28.7175C104.932 27.9629 105.39 27.2772 105.968 26.6997C106.546 26.1222 107.231 25.664 107.986 25.3515C108.74 25.0389 109.549 24.878 110.366 24.878C111.183 24.878 111.991 25.0389 112.746 25.3515C113.501 25.664 114.186 26.1222 114.764 26.6997C115.341 27.2772 115.799 27.9629 116.112 28.7175C116.424 29.472 116.585 30.2808 116.585 31.0976C116.585 32.7471 115.93 34.329 114.764 35.4954C113.597 36.6618 112.015 37.3171 110.366 37.3171C108.716 37.3171 107.134 36.6618 105.968 35.4954C104.802 34.329 104.146 32.7471 104.146 31.0976Z" fill="white"/>
</svg>
