<svg width="190" height="112" viewBox="0 0 190 112" fill="none" xmlns="http://www.w3.org/2000/svg">
<path d="M64.0348 97.1463V79.6918H70.2564C71.6143 79.6918 72.7393 79.9389 73.6314 80.4333C74.5234 80.9276 75.1911 81.6037 75.6342 82.4617C76.0774 83.3139 76.299 84.2742 76.299 85.3424C76.299 86.4162 76.0746 87.3821 75.6257 88.2401C75.1825 89.0924 74.5121 89.7685 73.6143 90.2685C72.7223 90.7628 71.6001 91.01 70.2479 91.01H65.9695V88.777H70.0092C70.8672 88.777 71.5632 88.6293 72.0973 88.3338C72.6314 88.0327 73.0234 87.6236 73.2734 87.1066C73.5234 86.5895 73.6484 86.0014 73.6484 85.3424C73.6484 84.6833 73.5234 84.098 73.2734 83.5867C73.0234 83.0753 72.6286 82.6747 72.0888 82.385C71.5547 82.0952 70.8501 81.9503 69.9751 81.9503H66.6683V97.1463H64.0348ZM84.532 97.4105C83.3047 97.4105 82.2337 97.1293 81.3189 96.5668C80.4041 96.0043 79.6939 95.2174 79.1882 94.206C78.6825 93.1946 78.4297 92.0128 78.4297 90.6605C78.4297 89.3026 78.6825 88.1151 79.1882 87.098C79.6939 86.081 80.4041 85.2912 81.3189 84.7287C82.2337 84.1662 83.3047 83.885 84.532 83.885C85.7592 83.885 86.8303 84.1662 87.745 84.7287C88.6598 85.2912 89.37 86.081 89.8757 87.098C90.3814 88.1151 90.6342 89.3026 90.6342 90.6605C90.6342 92.0128 90.3814 93.1946 89.8757 94.206C89.37 95.2174 88.6598 96.0043 87.745 96.5668C86.8303 97.1293 85.7592 97.4105 84.532 97.4105ZM84.5405 95.2713C85.3359 95.2713 85.995 95.0611 86.5178 94.6406C87.0405 94.2202 87.4268 93.6605 87.6768 92.9617C87.9325 92.2628 88.0604 91.4929 88.0604 90.652C88.0604 89.8168 87.9325 89.0497 87.6768 88.3509C87.4268 87.6463 87.0405 87.081 86.5178 86.6549C85.995 86.2287 85.3359 86.0156 84.5405 86.0156C83.7393 86.0156 83.0746 86.2287 82.5462 86.6549C82.0234 87.081 81.6342 87.6463 81.3786 88.3509C81.1286 89.0497 81.0036 89.8168 81.0036 90.652C81.0036 91.4929 81.1286 92.2628 81.3786 92.9617C81.6342 93.6605 82.0234 94.2202 82.5462 94.6406C83.0746 95.0611 83.7393 95.2713 84.5405 95.2713ZM95.8224 92.706L95.8054 89.5952H96.2486L101.464 84.0554H104.516L98.5668 90.3622H98.1662L95.8224 92.706ZM93.4787 97.1463V79.6918H96.027V97.1463H93.4787ZM101.746 97.1463L97.0582 90.9247L98.8139 89.1435L104.874 97.1463H101.746ZM111.941 97.4105C110.651 97.4105 109.54 97.135 108.609 96.5838C107.683 96.027 106.967 95.2458 106.461 94.2401C105.961 93.2287 105.711 92.0441 105.711 90.6861C105.711 89.3452 105.961 88.1634 106.461 87.1406C106.967 86.1179 107.671 85.3196 108.575 84.7458C109.484 84.1719 110.546 83.885 111.762 83.885C112.501 83.885 113.217 84.0071 113.91 84.2514C114.603 84.4958 115.225 84.8793 115.776 85.402C116.327 85.9247 116.762 86.6037 117.08 87.4389C117.398 88.2685 117.558 89.277 117.558 90.4645V91.3679H107.151V89.4588H115.06C115.06 88.7884 114.924 88.1946 114.651 87.6776C114.379 87.1549 113.995 86.7429 113.501 86.4418C113.012 86.1406 112.438 85.9901 111.779 85.9901C111.063 85.9901 110.438 86.1662 109.904 86.5185C109.376 86.8651 108.967 87.3196 108.677 87.8821C108.393 88.4389 108.251 89.0441 108.251 89.6975V91.1889C108.251 92.0639 108.404 92.8083 108.711 93.4219C109.023 94.0355 109.458 94.5043 110.015 94.8281C110.572 95.1463 111.222 95.3054 111.967 95.3054C112.45 95.3054 112.89 95.2372 113.288 95.1009C113.685 94.9588 114.029 94.7486 114.319 94.4702C114.609 94.1918 114.83 93.848 114.984 93.4389L117.396 93.8736C117.202 94.5838 116.856 95.206 116.356 95.7401C115.862 96.2685 115.239 96.6804 114.489 96.9759C113.745 97.2656 112.896 97.4105 111.941 97.4105ZM120.385 97.1463V84.0554H122.848V86.135H122.984C123.223 85.4304 123.643 84.8764 124.246 84.473C124.854 84.0639 125.541 83.8594 126.308 83.8594C126.467 83.8594 126.655 83.8651 126.871 83.8764C127.092 83.8878 127.266 83.902 127.391 83.9191V86.3566C127.288 86.3281 127.107 86.2969 126.845 86.2628C126.584 86.223 126.322 86.2031 126.061 86.2031C125.459 86.2031 124.922 86.331 124.45 86.5867C123.984 86.8367 123.615 87.1861 123.342 87.635C123.07 88.0781 122.933 88.5838 122.933 89.152V97.1463H120.385Z" fill="white"/>
<path d="M117.36 15.2348L117.128 14.9451L116.838 14.7134C111.007 8.99617 103.166 5.79367 95 5.79367C86.8336 5.79367 78.9928 8.99617 73.1616 14.7134L72.872 14.9451L72.6402 15.2348C66.923 21.066 63.7205 28.9068 63.7205 37.0732C63.7205 45.2396 66.923 53.0803 72.6402 58.9116L72.872 59.2012L73.1616 59.4329C78.9928 65.1502 86.8336 68.3527 95 68.3527C103.166 68.3527 111.007 65.1502 116.838 59.4329L117.128 59.2012L117.36 58.9116C123.077 53.0803 126.28 45.2396 126.28 37.0732C126.28 28.9068 123.077 21.066 117.36 15.2348V15.2348ZM119.069 33.5976H112.03C111.576 31.4172 110.711 29.3432 109.482 27.4863L114.463 22.5046C116.916 25.7511 118.501 29.5688 119.069 33.5976ZM98.4756 13.0046C102.504 13.5726 106.322 15.1575 109.569 17.6098L104.587 22.5915C102.73 21.3618 100.656 20.4969 98.4756 20.0427V13.0046ZM91.5244 13.0046V20.0427C89.344 20.4969 87.27 21.3618 85.4131 22.5915L80.4314 17.6098C83.6779 15.1575 87.4956 13.5726 91.5244 13.0046V13.0046ZM75.5366 22.5046L80.5183 27.4863C79.2887 29.3432 78.4237 31.4172 77.9695 33.5976H70.9314C71.4994 29.5688 73.0843 25.7511 75.5366 22.5046V22.5046ZM70.9314 40.5488H77.9695C78.4237 42.7291 79.2887 44.8031 80.5183 46.6601L75.5366 51.6418C73.0843 48.3952 71.4994 44.5776 70.9314 40.5488V40.5488ZM91.5244 61.1418C87.4956 60.5737 83.6779 58.9889 80.4314 56.5366L85.4131 51.5549C87.27 52.7845 89.344 53.6495 91.5244 54.1037V61.1418ZM84.5732 37.0732C84.5732 35.0109 85.1847 32.995 86.3304 31.2803C87.4761 29.5657 89.1046 28.2292 91.0098 27.44C92.9151 26.6509 95.0116 26.4444 97.0342 26.8467C99.0568 27.249 100.915 28.2421 102.373 29.7003C103.831 31.1585 104.824 33.0164 105.226 35.039C105.629 37.0616 105.422 39.1581 104.633 41.0633C103.844 42.9686 102.508 44.597 100.793 45.7428C99.0782 46.8885 97.0622 47.5 95 47.5C92.2346 47.5 89.5825 46.4015 87.6271 44.4461C85.6717 42.4906 84.5732 39.8385 84.5732 37.0732V37.0732ZM98.4756 61.1418V54.1037C100.656 53.6495 102.73 52.7845 104.587 51.5549L109.569 56.5366C106.322 58.9889 102.504 60.5737 98.4756 61.1418ZM114.463 51.6418L109.482 46.6601C110.711 44.8031 111.576 42.7291 112.03 40.5488H119.069C118.501 44.5776 116.916 48.3952 114.463 51.6418V51.6418Z" fill="white"/>
</svg>
