<svg width="56" height="37" viewBox="0 0 56 37" fill="none" xmlns="http://www.w3.org/2000/svg">
<path d="M55 32.8226C45.2419 31.0484 24.3065 25.7258 18.629 18.629" stroke="white" stroke-linecap="round"/>
<path d="M28.1563 15.3872C26.0273 18.2259 28.452 23.0753 29.9305 25.1452C29.0434 23.371 30.8176 20.7098 31.7047 18.9356C32.5918 17.1614 30.8176 11.8388 28.1563 15.3872Z" fill="white" stroke="white"/>
<path d="M21.3803 31.3519C24.9113 31.7025 27.8034 27.1164 28.8081 24.7795C27.75 26.4574 24.5545 26.3183 22.5774 26.4786C20.6003 26.6388 16.9665 30.9136 21.3803 31.3519Z" fill="white" stroke="white"/>
<path d="M27.7584 33.9041C30.865 34.2126 33.4094 30.1777 34.2933 28.1217C33.3624 29.5979 30.5511 29.4756 28.8116 29.6166C27.0721 29.7576 23.8752 33.5185 27.7584 33.9041Z" fill="white" stroke="white"/>
<path d="M38.0482 19.6168C39.2111 22.514 36.0463 26.0831 34.3185 27.5054C35.4764 26.1997 34.5746 23.5341 34.2247 21.8243C33.8749 20.1146 36.5946 15.9954 38.0482 19.6168Z" fill="white" stroke="white"/>
<path d="M36.8504 35.2968C39.2736 34.9447 40.7214 31.4418 41.1424 29.7344C40.6128 31.016 38.4394 31.4522 37.1219 31.8845C35.8043 32.3169 33.8213 35.7369 36.8504 35.2968Z" fill="white" stroke="white"/>
<path d="M15.5737 1.31607C14.8011 0.579318 13.586 0.579317 12.8134 1.31607L10.992 3.0528C10.5882 3.43788 10.0418 3.63673 9.48493 3.60133L6.97335 3.44166C5.9079 3.37392 4.97708 4.15496 4.85878 5.216L4.57989 7.71714C4.51806 8.27172 4.22735 8.77524 3.77799 9.10608L1.75137 10.5982C0.891648 11.2311 0.680649 12.4278 1.27204 13.3166L2.66611 15.4119C2.97521 15.8764 3.07617 16.449 2.94461 16.9913L2.35123 19.437C2.09951 20.4745 2.70705 21.5268 3.73142 21.8276L6.14614 22.5365C6.68155 22.6937 7.12695 23.0675 7.37473 23.5674L8.49224 25.8224C8.9663 26.7789 10.1081 27.1945 11.0861 26.7665L13.3916 25.7574C13.9028 25.5337 14.4843 25.5337 14.9955 25.7574L17.301 26.7665C18.279 27.1945 19.4208 26.7789 19.8949 25.8224L21.0124 23.5674C21.2602 23.0675 21.7055 22.6937 22.241 22.5365L24.6557 21.8276C25.68 21.5268 26.2876 20.4745 26.0359 19.437L25.4425 16.9913C25.3109 16.449 25.4119 15.8764 25.721 15.4119L27.1151 13.3166C27.7064 12.4278 27.4954 11.2311 26.6357 10.5982L24.6091 9.10608C24.1598 8.77524 23.869 8.27172 23.8072 7.71714L23.5283 5.216C23.41 4.15496 22.4792 3.37392 21.4137 3.44166L18.9022 3.60133C18.3453 3.63673 17.7989 3.43788 17.3951 3.0528L15.5737 1.31607Z" fill="white"/>
<path d="M43.6222 22.1523C45.0658 24.1303 43.5755 27.6152 42.6499 29.1105C43.1951 27.8355 41.9865 25.9773 41.3738 24.7333C40.7611 23.4894 41.8178 19.6799 43.6222 22.1523Z" fill="white" stroke="white"/>
<circle r="4.82258" transform="matrix(-1 0 0 1 14.1935 14.1935)" stroke="#314B94"/>
</svg>
