<svg width="127" height="99" viewBox="0 0 127 99" fill="none" xmlns="http://www.w3.org/2000/svg">
<g filter="url(#filter0_di_7_362)">
<path fill-rule="evenodd" clip-rule="evenodd" d="M63.5 19C58.1385 19.0168 52.9598 20.9505 48.8994 24.4519C45.7875 27.1331 43.5328 30.6269 42.9519 34.1328C36.1431 35.6359 31 41.5672 31 48.7294C31 57.0494 37.9387 63.6875 46.3603 63.6875H61.4688V41.3438C61.4688 40.805 61.6828 40.2884 62.0637 39.9074C62.4446 39.5265 62.9613 39.3125 63.5 39.3125C64.0387 39.3125 64.5554 39.5265 64.9363 39.9074C65.3172 40.2884 65.5312 40.805 65.5312 41.3438V63.6875H82.545C89.9144 63.6875 96 57.8781 96 50.5778C96 43.9316 90.9544 38.5162 84.4869 37.6022C83.4997 27.1209 74.4281 19 63.5 19ZM62.0619 83.4069C62.2506 83.596 62.4747 83.7461 62.7215 83.8485C62.9683 83.9509 63.2328 84.0036 63.5 84.0036C63.7672 84.0036 64.0317 83.9509 64.2785 83.8485C64.5253 83.7461 64.7494 83.596 64.9381 83.4069L77.1256 71.2194C77.507 70.838 77.7213 70.3207 77.7213 69.7812C77.7213 69.2418 77.507 68.7245 77.1256 68.3431C76.7442 67.9617 76.2269 67.7474 75.6875 67.7474C75.1481 67.7474 74.6308 67.9617 74.2494 68.3431L65.5312 77.0653V63.6875H61.4688V77.0653L52.7506 68.3431C52.3692 67.9617 51.8519 67.7474 51.3125 67.7474C50.7731 67.7474 50.2558 67.9617 49.8744 68.3431C49.493 68.7245 49.2787 69.2418 49.2787 69.7812C49.2787 70.3207 49.493 70.838 49.8744 71.2194L62.0619 83.4069Z" fill="url(#paint0_linear_7_362)"/>
</g>
<defs>
<filter id="filter0_di_7_362" x="0" y="0" width="127" height="127.004" filterUnits="userSpaceOnUse" color-interpolation-filters="sRGB">
<feFlood flood-opacity="0" result="BackgroundImageFix"/>
<feColorMatrix in="SourceAlpha" type="matrix" values="0 0 0 0 0 0 0 0 0 0 0 0 0 0 0 0 0 0 127 0" result="hardAlpha"/>
<feOffset dy="12"/>
<feGaussianBlur stdDeviation="15.5"/>
<feComposite in2="hardAlpha" operator="out"/>
<feColorMatrix type="matrix" values="0 0 0 0 0.92 0 0 0 0 0 0 0 0 0 1 0 0 0 1 0"/>
<feBlend mode="normal" in2="BackgroundImageFix" result="effect1_dropShadow_7_362"/>
<feBlend mode="normal" in="SourceGraphic" in2="effect1_dropShadow_7_362" result="shape"/>
<feColorMatrix in="SourceAlpha" type="matrix" values="0 0 0 0 0 0 0 0 0 0 0 0 0 0 0 0 0 0 127 0" result="hardAlpha"/>
<feOffset dy="-3"/>
<feGaussianBlur stdDeviation="6"/>
<feComposite in2="hardAlpha" operator="arithmetic" k2="-1" k3="1"/>
<feColorMatrix type="matrix" values="0 0 0 0 0.937833 0 0 0 0 0.689167 0 0 0 0 1 0 0 0 1 0"/>
<feBlend mode="normal" in2="shape" result="effect2_innerShadow_7_362"/>
</filter>
<linearGradient id="paint0_linear_7_362" x1="63.5" y1="19" x2="63.5" y2="84.0036" gradientUnits="userSpaceOnUse">
<stop stop-color="#F3DEFF"/>
<stop offset="1" stop-color="white"/>
</linearGradient>
</defs>
</svg>
