<svg width="90" height="91" viewBox="0 0 90 91" fill="none" xmlns="http://www.w3.org/2000/svg">
<path d="M45 90C69.8528 90 90 69.8528 90 45C90 20.1472 69.8528 0 45 0C20.1472 0 0 20.1472 0 45C0 69.8528 20.1472 90 45 90Z" fill="url(#paint0_linear_6_227)"/>
<path fill-rule="evenodd" clip-rule="evenodd" d="M44.7515 46.4542L44.6858 46.4396L44.7442 46.3811L44.6712 46.4031L44.6858 46.3446L44.6346 46.3884L44.62 46.3154L44.6054 46.3884L44.5542 46.3446L44.5689 46.4031L44.4958 46.3811L44.5542 46.4396L44.4958 46.4542L44.5542 46.4688L44.5031 46.5273L44.5689 46.5127H44.5908L44.6054 46.498H44.6638L44.7369 46.5346L44.6785 46.4761L44.7442 46.4615L44.7515 46.4542ZM44.7515 46.4542L44.6858 46.4396L44.7442 46.3811L44.6712 46.4031L44.6858 46.3446L44.6346 46.3884L44.62 46.3154L44.6054 46.3884L44.5542 46.3446L44.5689 46.4031L44.4958 46.3811L44.5542 46.4396L44.4958 46.4542L44.5542 46.4688L44.5031 46.5273L44.5689 46.5127H44.5908L44.6054 46.498H44.6638L44.7369 46.5346L44.6785 46.4761L44.7442 46.4615L44.7515 46.4542ZM44.7515 46.4542L44.6858 46.4396L44.7442 46.3811L44.6712 46.4031L44.6858 46.3446L44.6346 46.3884L44.62 46.3154L44.6054 46.3884L44.5542 46.3446L44.5689 46.4031L44.4958 46.3811L44.5542 46.4396L44.4958 46.4542L44.5542 46.4688L44.5031 46.5273L44.5689 46.5127H44.5908L44.6054 46.498H44.6638L44.7369 46.5346L44.6785 46.4761L44.7442 46.4615L44.7515 46.4542ZM44.7515 46.4542L44.6858 46.4396L44.7442 46.3811L44.6712 46.4031L44.6858 46.3446L44.6346 46.3884L44.62 46.3154L44.6054 46.3884L44.5542 46.3446L44.5689 46.4031L44.4958 46.3811L44.5542 46.4396L44.4958 46.4542L44.5542 46.4688L44.5031 46.5273L44.5689 46.5127H44.5908L44.6054 46.498H44.6638L44.7369 46.5346L44.6785 46.4761L44.7442 46.4615L44.7515 46.4542ZM44.7515 46.4542L44.6858 46.4396L44.7442 46.3811L44.6712 46.4031L44.6858 46.3446L44.6346 46.3884L44.62 46.3154L44.6054 46.3884L44.5542 46.3446L44.5689 46.4031L44.4958 46.3811L44.5542 46.4396L44.4958 46.4542L44.5542 46.4688L44.5031 46.5273L44.5689 46.5127H44.5908L44.6054 46.498H44.6638L44.7369 46.5346L44.6785 46.4761L44.7442 46.4615L44.7515 46.4542ZM44.7515 46.4542L44.6858 46.4396L44.7442 46.3811L44.6712 46.4031L44.6858 46.3446L44.6346 46.3884L44.62 46.3154L44.6054 46.3884L44.5542 46.3446L44.5689 46.4031L44.4958 46.3811L44.5542 46.4396L44.4958 46.4542L44.5542 46.4688L44.5031 46.5273L44.5689 46.5127H44.5908L44.6054 46.498H44.6638L44.7369 46.5346L44.6785 46.4761L44.7442 46.4615L44.7515 46.4542ZM88.3704 32.9717C86.2951 25.4523 82.3124 18.722 76.9706 13.3363C71.3145 7.62179 64.1312 3.41263 56.0856 1.38113C52.5341 0.482299 48.8219 0 45 0C40.9151 0 36.9617 0.548068 33.2056 1.57113C24.9626 3.79993 17.6551 8.31601 12.0209 14.4032C6.94219 19.8693 3.20802 26.5995 1.3519 34.0679C0.467684 37.5682 0 41.2293 0 45C0 50.0641 0.84037 54.9383 2.38227 59.4836C4.75723 66.4989 8.82023 72.7322 14.089 77.7087C19.5624 82.897 26.3438 86.7116 33.8925 88.6189C37.444 89.525 41.1562 90.0073 44.9927 90.0073C48.5734 90.0073 52.0518 89.5835 55.3841 88.7942C63.3274 86.9235 70.4596 82.9409 76.1522 77.4748C81.4648 72.3888 85.5205 66.0019 87.8296 58.8405C89.24 54.4852 90 49.8376 90 45.0146C90 40.8493 89.43 36.8155 88.3704 32.9937V32.9717ZM67.9458 69.4C63.7074 73.3826 58.4313 76.2764 52.5633 77.6283C50.1299 78.191 47.6015 78.4833 45 78.4833C42.15 78.4833 39.3732 78.1252 36.7278 77.4529C31.1887 76.0425 26.1976 73.2584 22.1492 69.4803C18.2324 65.8266 15.1997 61.2447 13.3802 56.0783C12.1671 52.6072 11.5094 48.8803 11.5094 44.9927C11.5094 42.3181 11.8236 39.7239 12.4156 37.2394C13.7382 31.6345 16.4713 26.5776 20.2273 22.4562C24.4146 17.8524 29.866 14.4251 36.0336 12.7152C38.8836 11.9259 41.8943 11.5021 45 11.5021C47.8426 11.5021 50.6122 11.8602 53.2575 12.5325C59.3009 14.0598 64.6939 17.2312 68.925 21.5573C72.9076 25.6203 75.8672 30.6918 77.3725 36.3698C78.1033 39.1174 78.4906 42.0112 78.4906 44.9927C78.4906 48.7195 77.8767 52.3003 76.766 55.6471C74.9829 60.9378 71.9284 65.6512 67.9458 69.3927V69.4ZM44.6931 46.4396L44.7515 46.3811L44.6785 46.4031L44.6931 46.3446L44.6419 46.3884L44.6273 46.3154L44.6127 46.3884L44.5615 46.3446L44.5762 46.4031L44.5031 46.3811L44.5615 46.4396L44.5031 46.4542L44.5615 46.4688L44.5104 46.5273L44.5762 46.5127H44.5981L44.6127 46.498H44.6712L44.7442 46.5346L44.6858 46.4761L44.7515 46.4615L44.6858 46.4469L44.6931 46.4396ZM44.7588 46.4542L44.6931 46.4396L44.7515 46.3811L44.6785 46.4031L44.6931 46.3446L44.6419 46.3884L44.6273 46.3154L44.6127 46.3884L44.5615 46.3446L44.5762 46.4031L44.5031 46.3811L44.5615 46.4396L44.5031 46.4542L44.5615 46.4688L44.5104 46.5273L44.5762 46.5127H44.5981L44.6127 46.498H44.6712L44.7442 46.5346L44.6858 46.4761L44.7515 46.4615L44.7588 46.4542ZM44.7588 46.4542L44.6931 46.4396L44.7515 46.3811L44.6785 46.4031L44.6931 46.3446L44.6419 46.3884L44.6273 46.3154L44.6127 46.3884L44.5615 46.3446L44.5762 46.4031L44.5031 46.3811L44.5615 46.4396L44.5031 46.4542L44.5615 46.4688L44.5104 46.5273L44.5762 46.5127H44.5981L44.6127 46.498H44.6712L44.7442 46.5346L44.6858 46.4761L44.7515 46.4615L44.7588 46.4542ZM44.7588 46.4542L44.6931 46.4396L44.7515 46.3811L44.6785 46.4031L44.6931 46.3446L44.6419 46.3884L44.6273 46.3154L44.6127 46.3884L44.5615 46.3446L44.5762 46.4031L44.5031 46.3811L44.5615 46.4396L44.5031 46.4542L44.5615 46.4688L44.5104 46.5273L44.5762 46.5127H44.5981L44.6127 46.498H44.6712L44.7442 46.5346L44.6858 46.4761L44.7515 46.4615L44.7588 46.4542ZM44.7588 46.4542L44.6931 46.4396L44.7515 46.3811L44.6785 46.4031L44.6931 46.3446L44.6419 46.3884L44.6273 46.3154L44.6127 46.3884L44.5615 46.3446L44.5762 46.4031L44.5031 46.3811L44.5615 46.4396L44.5031 46.4542L44.5615 46.4688L44.5104 46.5273L44.5762 46.5127H44.5981L44.6127 46.498H44.6712L44.7442 46.5346L44.6858 46.4761L44.7515 46.4615L44.7588 46.4542Z" fill="url(#paint1_linear_6_227)"/>
<path fill-rule="evenodd" clip-rule="evenodd" d="M44.7443 46.5276L44.6639 46.5057L44.6858 46.5641L44.6346 46.5203L44.62 46.5934L44.5981 46.5276L44.5543 46.5714L44.5689 46.513L44.5031 46.5276L44.5543 46.4764L44.4958 46.4545L44.5543 46.4399L44.4958 46.3814L44.5689 46.4107L44.5543 46.3522L44.5981 46.3887L44.62 46.3157L44.6346 46.3887L44.6858 46.3522L44.6639 46.4107L44.7443 46.3814L44.6858 46.4399L44.7516 46.4545L44.6858 46.4764L44.7443 46.5276Z" fill="url(#paint2_linear_6_227)"/>
<path style="mix-blend-mode:multiply" opacity="0.88" fill-rule="evenodd" clip-rule="evenodd" d="M45 12.7593C27.1914 12.7593 12.759 27.1917 12.759 45.0003C12.759 62.8088 27.1914 77.2412 45 77.2412C62.8085 77.2412 77.241 62.8088 77.241 45.0003C77.241 27.1917 62.8012 12.7593 45 12.7593ZM45 74.3255C28.8064 74.3255 15.6747 61.1938 15.6747 45.0003C15.6747 28.8067 28.7991 15.675 45 15.675C61.2009 15.675 74.3253 28.8067 74.3253 45.0003C74.3253 61.1938 61.1936 74.3255 45 74.3255V74.3255Z" fill="url(#paint3_linear_6_227)"/>
<path style="mix-blend-mode:screen" opacity="0.5" fill-rule="evenodd" clip-rule="evenodd" d="M45 14.155C27.1914 14.155 12.759 27.1917 12.759 45.0003C12.759 62.8088 27.1914 77.2413 45 77.2413C62.8085 77.2413 77.241 62.8088 77.241 45.0003C77.241 27.1917 62.8012 14.155 45 14.155ZM44.7442 75.0928C28.5507 75.0928 15.6747 61.2011 15.6747 45.0003C15.6747 28.7994 28.7991 15.675 45 15.675C61.2009 15.675 74.3253 28.8067 74.3253 45.0003C74.3253 61.1938 60.9378 75.0928 44.7442 75.0928V75.0928Z" fill="url(#paint4_linear_6_227)"/>
<path fill-rule="evenodd" clip-rule="evenodd" d="M55.3914 88.7872C52.0591 89.5764 48.5807 90.0003 45 90.0003C41.1635 90.0003 37.4513 89.5253 33.8998 88.6118L35.7852 81.18C36.2967 79.1631 38.2478 77.877 40.3159 78.162C41.8504 78.3739 43.4143 78.4835 45 78.4835C46.3592 78.4835 47.6965 78.4032 49.0046 78.2424C51.0507 78.0012 52.9726 79.2728 53.4841 81.2677L55.3914 88.7799V88.7872Z" fill="url(#paint5_linear_6_227)"/>
<path fill-rule="evenodd" clip-rule="evenodd" d="M56.0783 1.38142L54.1929 8.81322C53.6814 10.8374 51.7303 12.1162 49.6622 11.8312C48.135 11.6193 46.5785 11.5097 44.9927 11.5097C43.195 11.5097 41.4339 11.6486 39.7093 11.9262C37.6048 12.2624 35.5879 10.9836 35.0617 8.92283L33.1983 1.57872C36.9617 0.548358 40.9151 0.000289917 45 0.000289917C48.8292 0.000289917 52.5341 0.475282 56.0856 1.37411L56.0783 1.38142Z" fill="url(#paint6_linear_6_227)"/>
<path fill-rule="evenodd" clip-rule="evenodd" d="M19.3943 72.2867L14.0963 77.7016C8.82754 72.7325 4.76454 66.4918 2.38958 59.4766L9.84329 57.1747C11.7798 56.5754 13.8478 57.5035 14.7174 59.3304C15.9963 62.0269 17.6259 64.5261 19.5404 66.7622C20.9216 68.3772 20.8777 70.7667 19.3943 72.2867V72.2867Z" fill="url(#paint7_linear_6_227)"/>
<path fill-rule="evenodd" clip-rule="evenodd" d="M88.3631 32.972L81.2236 35.1789C79.1921 35.8074 76.9706 34.7989 76.196 32.8113C74.9902 29.7202 73.3314 26.8483 71.3072 24.2833C70.0211 22.6537 70.1015 20.3446 71.5484 18.8684L76.956 13.3439C82.2905 18.7296 86.2731 25.4598 88.3558 32.9793L88.3631 32.972Z" fill="url(#paint8_linear_6_227)"/>
<path fill-rule="evenodd" clip-rule="evenodd" d="M17.9985 25.1748C16.1059 27.7471 14.5713 30.6044 13.4752 33.6662C12.759 35.6612 10.5887 36.7208 8.54985 36.1362L1.34459 34.0682C3.20071 26.5998 6.93488 19.8695 12.0136 14.4035L17.5747 19.8622C19.0216 21.2799 19.197 23.5379 17.9912 25.1675L17.9985 25.1748Z" fill="url(#paint9_linear_6_227)"/>
<path fill-rule="evenodd" clip-rule="evenodd" d="M87.8296 58.8262C85.5205 65.9949 81.4647 72.3744 76.1521 77.4605L70.7884 72.1918C69.2538 70.6864 69.1807 68.2676 70.5692 66.6307C72.5422 64.2996 74.201 61.6981 75.4872 58.8847C76.3202 57.0505 78.3663 56.1078 80.3028 56.6632L87.8369 58.8262H87.8296Z" fill="url(#paint10_linear_6_227)"/>
<g style="mix-blend-mode:multiply" opacity="0.5">
<path fill-rule="evenodd" clip-rule="evenodd" d="M1.49805 56.5097C1.49805 56.5097 10.5229 88.5826 45.0585 88.2684C81.3917 87.9395 88.6189 56.0785 88.6189 56.0785C88.6189 56.0785 81.0336 90.0003 44.9927 90.0003C8.95177 90.0003 1.49805 56.5097 1.49805 56.5097Z" fill="#22346B"/>
</g>
<path fill-rule="evenodd" clip-rule="evenodd" d="M26.1099 11.9774C26.1099 12.9566 25.3207 13.7458 24.3415 13.7458C23.3623 13.7458 22.5731 12.9566 22.5731 11.9774C22.5731 10.9982 23.3623 10.2089 24.3415 10.2089C25.3207 10.2089 26.1099 10.9982 26.1099 11.9774Z" fill="url(#paint11_linear_6_227)"/>
<path fill-rule="evenodd" clip-rule="evenodd" d="M65.4247 11.9774C65.4247 12.9566 64.6354 13.7458 63.6562 13.7458C62.677 13.7458 61.8878 12.9566 61.8878 11.9774C61.8878 10.9982 62.677 10.2089 63.6562 10.2089C64.6354 10.2089 65.4247 10.9982 65.4247 11.9774Z" fill="url(#paint12_linear_6_227)"/>
<path fill-rule="evenodd" clip-rule="evenodd" d="M27.8784 79.0097C27.8784 79.9889 27.0891 80.7781 26.1099 80.7781C25.1307 80.7781 24.3415 79.9889 24.3415 79.0097C24.3415 78.0305 25.1307 77.2412 26.1099 77.2412C27.0891 77.2412 27.8784 78.0305 27.8784 79.0097Z" fill="url(#paint13_linear_6_227)"/>
<path fill-rule="evenodd" clip-rule="evenodd" d="M64.8108 79.4847C64.8108 80.4639 64.0216 81.2531 63.0424 81.2531C62.0632 81.2531 61.274 80.4639 61.274 79.4847C61.274 78.5055 62.0632 77.7162 63.0424 77.7162C64.0216 77.7162 64.8108 78.5055 64.8108 79.4847Z" fill="url(#paint14_linear_6_227)"/>
<path fill-rule="evenodd" clip-rule="evenodd" d="M84.9286 46.4545C84.9286 47.4337 84.1393 48.2229 83.1601 48.2229C82.1809 48.2229 81.3917 47.4337 81.3917 46.4545C81.3917 45.4753 82.1809 44.6861 83.1601 44.6861C84.1393 44.6861 84.9286 45.4753 84.9286 46.4545V46.4545Z" fill="url(#paint15_linear_6_227)"/>
<path fill-rule="evenodd" clip-rule="evenodd" d="M7.68756 46.5933C7.68756 47.5725 6.89834 48.3618 5.91913 48.3618C4.93991 48.3618 4.1507 47.5725 4.1507 46.5933C4.1507 45.6141 4.93991 44.8249 5.91913 44.8249C6.89834 44.8249 7.68756 45.6141 7.68756 46.5933V46.5933Z" fill="url(#paint16_linear_6_227)"/>
<path d="M45.0585 75.0856C61.4642 75.0856 74.7637 61.7861 74.7637 45.3803C74.7637 28.9745 61.4642 15.675 45.0585 15.675C28.6527 15.675 15.3532 28.9745 15.3532 45.3803C15.3532 61.7861 28.6527 75.0856 45.0585 75.0856Z" fill="url(#paint17_linear_6_227)"/>
<g style="mix-blend-mode:multiply" opacity="0.88">
<path fill-rule="evenodd" clip-rule="evenodd" d="M15.6747 31.5982C15.6747 31.5982 24.7873 17.4142 45 17.4142C65.2127 17.4142 75.5237 34.5797 75.5237 34.5797C75.5237 34.5797 68.5377 12.752 45 12.752C21.4623 12.752 15.6747 31.5982 15.6747 31.5982Z" fill="#B5B4C2"/>
</g>
<defs>
<linearGradient id="paint0_linear_6_227" x1="45" y1="89.9927" x2="45" y2="0" gradientUnits="userSpaceOnUse">
<stop stop-color="#39ABDE"/>
<stop offset="0.03" stop-color="#3CACDF"/>
<stop offset="0.27" stop-color="#58BBEC"/>
<stop offset="0.51" stop-color="#6CC5F6"/>
<stop offset="0.76" stop-color="#78CBFC"/>
<stop offset="1" stop-color="#7DCEFE"/>
</linearGradient>
<linearGradient id="paint1_linear_6_227" x1="45" y1="90" x2="45" y2="0" gradientUnits="userSpaceOnUse">
<stop stop-color="#39ABDE"/>
<stop offset="0.03" stop-color="#3CACDF"/>
<stop offset="0.27" stop-color="#58BBEC"/>
<stop offset="0.51" stop-color="#6CC5F6"/>
<stop offset="0.76" stop-color="#78CBFC"/>
<stop offset="1" stop-color="#7DCEFE"/>
</linearGradient>
<linearGradient id="paint2_linear_6_227" x1="44.5616" y1="46.5787" x2="44.6712" y2="46.3376" gradientUnits="userSpaceOnUse">
<stop stop-color="#13001D"/>
<stop offset="1" stop-color="#2F042F"/>
</linearGradient>
<linearGradient id="paint3_linear_6_227" x1="45" y1="77.2412" x2="45" y2="12.7593" gradientUnits="userSpaceOnUse">
<stop offset="0.02" stop-color="white"/>
<stop offset="0.99" stop-color="#8463DB"/>
</linearGradient>
<linearGradient id="paint4_linear_6_227" x1="45" y1="77.2413" x2="45" y2="14.155" gradientUnits="userSpaceOnUse">
<stop stop-color="#A188B0"/>
<stop offset="0.01" stop-color="#9880A6"/>
<stop offset="0.08" stop-color="#74627F"/>
<stop offset="0.14" stop-color="#54475C"/>
<stop offset="0.22" stop-color="#3A313F"/>
<stop offset="0.3" stop-color="#241F28"/>
<stop offset="0.4" stop-color="#141116"/>
<stop offset="0.51" stop-color="#080709"/>
<stop offset="0.66" stop-color="#010102"/>
<stop offset="0.99"/>
</linearGradient>
<linearGradient id="paint5_linear_6_227" x1="44.7077" y1="92.2729" x2="42.6616" y2="-19.9275" gradientUnits="userSpaceOnUse">
<stop stop-color="#F9D5D1"/>
<stop offset="0.11" stop-color="#FADEDA"/>
<stop offset="0.41" stop-color="#FCF0EE"/>
<stop offset="0.71" stop-color="#FEFBFA"/>
<stop offset="1" stop-color="white"/>
</linearGradient>
<linearGradient id="paint6_linear_6_227" x1="46.3008" y1="92.2437" x2="44.2546" y2="-19.9567" gradientUnits="userSpaceOnUse">
<stop stop-color="#F9D5D1"/>
<stop offset="0.11" stop-color="#FADEDA"/>
<stop offset="0.41" stop-color="#FCF0EE"/>
<stop offset="0.71" stop-color="#FEFBFA"/>
<stop offset="1" stop-color="white"/>
</linearGradient>
<linearGradient id="paint7_linear_6_227" x1="11.9844" y1="92.8721" x2="9.93829" y2="-19.3356" gradientUnits="userSpaceOnUse">
<stop stop-color="#F9D5D1"/>
<stop offset="0.11" stop-color="#FADEDA"/>
<stop offset="0.41" stop-color="#FCF0EE"/>
<stop offset="0.71" stop-color="#FEFBFA"/>
<stop offset="1" stop-color="white"/>
</linearGradient>
<linearGradient id="paint8_linear_6_227" x1="80.5586" y1="91.6226" x2="78.5125" y2="-20.5851" gradientUnits="userSpaceOnUse">
<stop stop-color="#F9D5D1"/>
<stop offset="0.11" stop-color="#FADEDA"/>
<stop offset="0.41" stop-color="#FCF0EE"/>
<stop offset="0.71" stop-color="#FEFBFA"/>
<stop offset="1" stop-color="white"/>
</linearGradient>
<linearGradient id="paint9_linear_6_227" x1="11.2463" y1="92.8868" x2="9.20022" y2="-19.3209" gradientUnits="userSpaceOnUse">
<stop stop-color="#F9D5D1"/>
<stop offset="0.11" stop-color="#FADEDA"/>
<stop offset="0.41" stop-color="#FCF0EE"/>
<stop offset="0.71" stop-color="#FEFBFA"/>
<stop offset="1" stop-color="white"/>
</linearGradient>
<linearGradient id="paint10_linear_6_227" x1="79.2067" y1="91.6445" x2="77.1606" y2="-20.5559" gradientUnits="userSpaceOnUse">
<stop stop-color="#F9D5D1"/>
<stop offset="0.11" stop-color="#FADEDA"/>
<stop offset="0.41" stop-color="#FCF0EE"/>
<stop offset="0.71" stop-color="#FEFBFA"/>
<stop offset="1" stop-color="white"/>
</linearGradient>
<linearGradient id="paint11_linear_6_227" x1="-2.4992" y1="77.7601" x2="34.7621" y2="-13.5626" gradientUnits="userSpaceOnUse">
<stop stop-color="#2C001D"/>
<stop offset="1" stop-color="#39103E"/>
</linearGradient>
<linearGradient id="paint12_linear_6_227" x1="31.196" y1="91.5056" x2="68.4646" y2="0.19028" gradientUnits="userSpaceOnUse">
<stop stop-color="#2C001D"/>
<stop offset="1" stop-color="#39103E"/>
</linearGradient>
<linearGradient id="paint13_linear_6_227" x1="22.4635" y1="87.9468" x2="59.7321" y2="-3.37588" gradientUnits="userSpaceOnUse">
<stop stop-color="#2C001D"/>
<stop offset="1" stop-color="#39103E"/>
</linearGradient>
<linearGradient id="paint14_linear_6_227" x1="54.2879" y1="100.932" x2="91.5492" y2="9.60967" gradientUnits="userSpaceOnUse">
<stop stop-color="#2C001D"/>
<stop offset="1" stop-color="#39103E"/>
</linearGradient>
<linearGradient id="paint15_linear_6_227" x1="59.9805" y1="103.256" x2="97.2417" y2="11.9335" gradientUnits="userSpaceOnUse">
<stop stop-color="#2C001D"/>
<stop offset="1" stop-color="#39103E"/>
</linearGradient>
<linearGradient id="paint16_linear_6_227" x1="-6.18951" y1="76.2547" x2="31.0791" y2="-15.0679" gradientUnits="userSpaceOnUse">
<stop stop-color="#2C001D"/>
<stop offset="1" stop-color="#39103E"/>
</linearGradient>
<linearGradient id="paint17_linear_6_227" x1="45.0585" y1="75.0856" x2="45.0585" y2="15.675" gradientUnits="userSpaceOnUse">
<stop stop-color="#F9D5D1"/>
<stop offset="0.11" stop-color="#FADEDA"/>
<stop offset="0.41" stop-color="#FCF0EE"/>
<stop offset="0.71" stop-color="#FEFBFA"/>
<stop offset="1" stop-color="white"/>
</linearGradient>
</defs>
</svg>
